<?xml version="1.0" encoding="utf-8"?>
<!-- Uploaded to: SVG Repo, www.svgrepo.com, Generator: SVG Repo Mixer Tools -->
<svg width="800px" height="800px" viewBox="0 0 1024 1024" class="icon"  version="1.1" xmlns="http://www.w3.org/2000/svg"><path d="M106.666667 320c0 125.866667 177.066667 213.333333 456.533333 213.333333C876.8 533.333333 917.333333 362.666667 917.333333 290.133333 917.333333 200.533333 821.333333 106.666667 731.733333 106.666667c157.866667 36.266667 234.666667 298.666667-134.4 298.666666-275.2 0-426.666667-51.2-426.666666-100.266666L106.666667 320z" fill="#F44336" /><path d="M733.866667 512c8.533333-27.733333 12.8-55.466667 12.8-85.333333 0-12.8-2.133333-25.6-4.266667-40.533334-38.4 10.666667-85.333333 19.2-145.066667 19.2-53.333333 0-102.4-2.133333-145.066666-6.4-29.866667 34.133333-78.933333 68.266667-140.8 102.4 70.4 19.2 155.733333 29.866667 253.866666 29.866667 66.133333 2.133333 121.6-6.4 168.533334-19.2z" fill="#D32F2F" /><path d="M106.666667 753.066667h810.666666V896H106.666667z" fill="#81D4FA" /><path d="M106.666667 759.466667c14.933333 19.2 38.4 29.866667 64 29.866666s49.066667-10.666667 64-29.866666c14.933333 17.066667 38.4 29.866667 64 29.866666s49.066667-10.666667 64-29.866666c14.933333 17.066667 38.4 29.866667 64 29.866666s49.066667-10.666667 64-29.866666c14.933333 17.066667 38.4 29.866667 64 29.866666s49.066667-10.666667 64-29.866666c14.933333 17.066667 38.4 29.866667 64 29.866666s49.066667-10.666667 64-29.866666c14.933333 17.066667 38.4 29.866667 64 29.866666s49.066667-10.666667 64-29.866666c10.666667 12.8 25.6 21.333333 42.666666 25.6v-44.8c-12.8-6.4-21.333333-21.333333-21.333333-36.266667h-42.666667c0 23.466667-19.2 42.666667-42.666666 42.666667s-42.666667-19.2-42.666667-42.666667h-42.666667c0 23.466667-19.2 42.666667-42.666666 42.666667s-42.666667-19.2-42.666667-42.666667h-42.666667c0 23.466667-19.2 42.666667-42.666666 42.666667s-42.666667-19.2-42.666667-42.666667h-42.666667c0 23.466667-19.2 42.666667-42.666666 42.666667s-42.666667-19.2-42.666667-42.666667h-42.666667c0 23.466667-19.2 42.666667-42.666666 42.666667s-42.666667-19.2-42.666667-42.666667h-42.666667c0 23.466667-19.2 42.666667-42.666666 42.666667s-42.666667-19.2-42.666667-42.666667H106.666667v55.466667zM917.333333 889.6c-12.8-6.4-21.333333-21.333333-21.333333-36.266667h-42.666667c0 23.466667-19.2 42.666667-42.666666 42.666667s-42.666667-19.2-42.666667-42.666667h-42.666667c0 23.466667-19.2 42.666667-42.666666 42.666667s-42.666667-19.2-42.666667-42.666667h-42.666667c0 23.466667-19.2 42.666667-42.666666 42.666667s-42.666667-19.2-42.666667-42.666667h-42.666667c0 23.466667-19.2 42.666667-42.666666 42.666667s-42.666667-19.2-42.666667-42.666667h-42.666667c0 23.466667-19.2 42.666667-42.666666 42.666667s-42.666667-19.2-42.666667-42.666667h-42.666667c0 23.466667-19.2 42.666667-42.666666 42.666667s-42.666667-19.2-42.666667-42.666667H106.666667v55.466667c14.933333 19.2 38.4 29.866667 64 29.866667s49.066667-10.666667 64-29.866667c14.933333 17.066667 38.4 29.866667 64 29.866667s49.066667-10.666667 64-29.866667c14.933333 17.066667 38.4 29.866667 64 29.866667s49.066667-10.666667 64-29.866667c14.933333 17.066667 38.4 29.866667 64 29.866667s49.066667-10.666667 64-29.866667c14.933333 17.066667 38.4 29.866667 64 29.866667s49.066667-10.666667 64-29.866667c14.933333 17.066667 38.4 29.866667 64 29.866667s49.066667-10.666667 64-29.866667c10.666667 12.8 25.6 21.333333 42.666666 25.6v-44.8z" fill="#03A9F4" /><path d="M177.066667 381.866667S326.4 448 576 448c221.866667 0 294.4-96 294.4-96S821.333333 490.666667 576 490.666667c-300.8 0-398.933333-108.8-398.933333-108.8z" fill="#FFCDD2" /><path d="M170.666667 305.066667c0-40.533333 44.8-91.733333 149.333333-91.733334 113.066667 0 213.333333 49.066667 213.333333 106.666667 0 104.533333-145.066667 215.466667-426.666666 320 0 110.933333 98.133333 170.666667 192 170.666667 72.533333 0 106.666667-21.333333 106.666666-21.333334 106.666667-68.266667 298.666667-192 298.666667-362.666666 0-194.133333-217.6-256-384-256-134.4 0-213.333333 66.133333-213.333333 149.333333l64-14.933333z" fill="#F44336" /><path d="M492.8 234.666667C631.466667 315.733333 597.333333 512 170.666667 674.133333c0 27.733333 34.133333 93.866667 106.666666 93.866667 61.866667 0 102.4-46.933333 106.666667-64 110.933333-42.666667 256-162.133333 256-277.333333 0-110.933333-61.866667-157.866667-147.2-192z" fill="#FFCDD2" /></svg>