<?xml version="1.0" encoding="iso-8859-1"?>
<!-- Uploaded to: SVG Repo, www.svgrepo.com, Generator: SVG Repo Mixer Tools -->
<svg version="1.1" id="Layer_1" xmlns="http://www.w3.org/2000/svg" xmlns:xlink="http://www.w3.org/1999/xlink" 
	 viewBox="0 0 512 512" xml:space="preserve">
<polygon style="fill:#FFE6B8;" points="431.28,10.199 80.72,10.199 80.72,501.801 347.283,501.801 431.28,417.803 "/>
<polygon style="fill:#FFAD61;" points="431.28,417.803 347.283,501.801 347.209,417.731 "/>
<g>
	<rect x="122.39" y="49.976" style="fill:#BCC987;" width="79.554" height="79.554"/>
	<rect x="122.39" y="177.466" style="fill:#BCC987;" width="79.554" height="79.554"/>
	<rect x="122.39" y="303.936" style="fill:#BCC987;" width="79.554" height="79.554"/>
</g>
<g>
	<path style="fill:#4D3D36;" d="M431.279,0H80.721c-5.633,0-10.199,4.566-10.199,10.199v491.602c0,5.633,4.566,10.199,10.199,10.199
		h266.562c2.705,0,5.299-1.075,7.212-2.987l83.997-83.998c1.912-1.912,2.987-4.506,2.987-7.212V10.199
		C441.479,4.566,436.912,0,431.279,0z M90.92,20.398h330.161v387.201l-73.862-0.067c-0.003,0-0.006,0-0.009,0
		c-2.705,0-5.299,1.075-7.212,2.987c-1.915,1.915-2.99,4.513-2.987,7.222l0.066,73.861H90.92V20.398z M357.419,427.939l49.257,0.045
		l-49.213,49.213L357.419,427.939z"/>
	<path style="fill:#4D3D36;" d="M240.217,63.287h69.322c5.633,0,10.199-4.566,10.199-10.199s-4.566-10.199-10.199-10.199h-69.322
		c-5.633,0-10.199,4.566-10.199,10.199S234.584,63.287,240.217,63.287z"/>
	<path style="fill:#4D3D36;" d="M240.217,99.952H390.63c5.633,0,10.199-4.566,10.199-10.199s-4.566-10.199-10.199-10.199H240.217
		c-5.633,0-10.199,4.566-10.199,10.199S234.584,99.952,240.217,99.952z"/>
	<path style="fill:#4D3D36;" d="M240.217,136.669H390.63c5.633,0,10.199-4.566,10.199-10.199c0-5.633-4.566-10.199-10.199-10.199
		H240.217c-5.633,0-10.199,4.566-10.199,10.199S234.584,136.669,240.217,136.669z"/>
	<path style="fill:#4D3D36;" d="M201.944,39.777H122.39c-5.633,0-10.199,4.566-10.199,10.199v79.554
		c0,5.633,4.566,10.199,10.199,10.199h79.554c5.633,0,10.199-4.566,10.199-10.199V49.976
		C212.143,44.343,207.577,39.777,201.944,39.777z M191.745,119.331H132.59V60.175h59.155V119.331z"/>
	<path style="fill:#4D3D36;" d="M144.374,108.098c1.992,1.992,4.602,2.987,7.212,2.987c2.61,0,5.221-0.996,7.212-2.987l4.241-4.241
		l4.241,4.241c1.992,1.992,4.602,2.987,7.212,2.987c2.61,0,5.221-0.996,7.212-2.987c3.983-3.983,3.983-10.441,0-14.424l-4.241-4.241
		l4.241-4.241c3.983-3.983,3.984-10.441,0-14.424c-3.983-3.984-10.441-3.983-14.424,0l-4.241,4.241l-4.241-4.241
		c-3.983-3.983-10.441-3.983-14.424,0c-3.983,3.983-3.983,10.441,0,14.424l4.241,4.241l-4.241,4.241
		C140.391,97.657,140.39,104.116,144.374,108.098z"/>
	<path style="fill:#4D3D36;" d="M240.217,190.777h69.322c5.633,0,10.199-4.566,10.199-10.199s-4.566-10.199-10.199-10.199h-69.322
		c-5.633,0-10.199,4.566-10.199,10.199S234.584,190.777,240.217,190.777z"/>
	<path style="fill:#4D3D36;" d="M240.217,227.442H390.63c5.633,0,10.199-4.566,10.199-10.199c0-5.633-4.566-10.199-10.199-10.199
		H240.217c-5.633,0-10.199,4.566-10.199,10.199C230.018,222.876,234.584,227.442,240.217,227.442z"/>
	<path style="fill:#4D3D36;" d="M240.217,264.159H390.63c5.633,0,10.199-4.566,10.199-10.199c0-5.633-4.566-10.199-10.199-10.199
		H240.217c-5.633,0-10.199,4.566-10.199,10.199C230.018,259.593,234.584,264.159,240.217,264.159z"/>
	<path style="fill:#4D3D36;" d="M201.944,167.267H122.39c-5.633,0-10.199,4.566-10.199,10.199v79.554
		c0,5.633,4.566,10.199,10.199,10.199h79.554c5.633,0,10.199-4.566,10.199-10.199v-79.554
		C212.143,171.833,207.577,167.267,201.944,167.267z M191.745,246.821H132.59v-59.155h59.155V246.821z"/>
	<path style="fill:#4D3D36;" d="M344.72,296.849c-5.633,0-10.199,4.566-10.199,10.199s4.566,10.199,10.199,10.199h3.577
		c5.633,0,10.199-4.566,10.199-10.199s-4.566-10.199-10.199-10.199H344.72z"/>
	<path style="fill:#4D3D36;" d="M240.217,317.247h69.322c5.633,0,10.199-4.566,10.199-10.199s-4.566-10.199-10.199-10.199h-69.322
		c-5.633,0-10.199,4.566-10.199,10.199S234.584,317.247,240.217,317.247z"/>
	<path style="fill:#4D3D36;" d="M240.217,353.912H390.63c5.633,0,10.199-4.566,10.199-10.199s-4.566-10.199-10.199-10.199H240.217
		c-5.633,0-10.199,4.566-10.199,10.199S234.584,353.912,240.217,353.912z"/>
	<path style="fill:#4D3D36;" d="M400.829,380.43c0-5.633-4.566-10.199-10.199-10.199H240.217c-5.633,0-10.199,4.566-10.199,10.199
		s4.566,10.199,10.199,10.199H390.63C396.263,390.629,400.829,386.063,400.829,380.43z"/>
	<path style="fill:#4D3D36;" d="M201.944,293.737H122.39c-5.633,0-10.199,4.566-10.199,10.199v79.554
		c0,5.633,4.566,10.199,10.199,10.199h79.554c5.633,0,10.199-4.566,10.199-10.199v-79.554
		C212.143,298.303,207.577,293.737,201.944,293.737z M191.745,373.291H132.59v-59.155h59.155V373.291z"/>
</g>
</svg>